# xmcd
#
# Track frame offsets:
#	150
#	25276
#	37354
#	56399
#	74667
#	90236
#	114580
#	135253
#	157665
#	172247
#	186048
#	198654
#	218524
#	227716
#	247956
#	262446
#	276065
#	300587
#
# Disc length: 4287 seconds
#
# Revision: 2
# Processed by: cddbd v1.5.2PL0 Copyright (c) Steve Scherf et al.
# Submitted via: audiograbber 1.83.01
#
DISCID=0010bd12
DTITLE=Tracy Chapman - The Very Best of
DYEAR=2000
DGENRE=Power Ballad
TTITLE0=New beginning
TTITLE1=Talkin´ bout a revolution
TTITLE2=Crossroads
TTITLE3=Fredom now
TTITLE4=So
TTITLE5=Heaven´s here on earth
TTITLE6=Open arms
TTITLE7=Fast car
TTITLE8=Baby can I hold you
TTITLE9=Material world
TTITLE10=Born to sight
TTITLE11=Bang, bang, bang
TTITLE12=Woman´s work
TTITLE13=Give me one reason
TTITLE14=For my lover
TTITLE15=If not now...
TTITLE16=The promise
TTITLE17=If these are the thines
EXTD=
EXTT0=
EXTT1=
EXTT2=
EXTT3=
EXTT4=
EXTT5=
EXTT6=
EXTT7=
EXTT8=
EXTT9=
EXTT10=
EXTT11=
EXTT12=
EXTT13=
EXTT14=
EXTT15=
EXTT16=
EXTT17=
PLAYORDER=
